<?xml version="1.0" standalone="no"?>
<!DOCTYPE svg PUBLIC "-//W3C//DTD SVG 20010904//EN"
 "http://www.w3.org/TR/2001/REC-SVG-20010904/DTD/svg10.dtd">
<svg version="1.0" xmlns="http://www.w3.org/2000/svg"
 width="700.000000pt" height="700.000000pt" viewBox="0 0 700.000000 700.000000"
 preserveAspectRatio="xMidYMid meet">
<metadata>
Created by potrace 1.14, written by Peter Selinger 2001-2017
</metadata>
<g transform="translate(0.000000,700.000000) scale(0.100000,-0.100000)"
fill="#000000" stroke="none">
<path d="M3417 6986 c-50 -18 -101 -58 -125 -98 -11 -18 -47 -121 -81 -228
-35 -107 -92 -287 -128 -400 -35 -113 -82 -259 -103 -325 -22 -66 -67 -208
-100 -315 -34 -107 -67 -209 -73 -227 l-12 -31 -168 106 c-93 59 -179 114
-193 122 -37 23 -280 178 -369 236 -251 162 -536 341 -579 363 -36 19 -64 25
-110 25 -71 0 -116 -18 -168 -69 -55 -53 -73 -99 -73 -180 0 -62 7 -86 58
-215 32 -80 63 -154 68 -165 17 -37 457 -1140 456 -1142 -2 -1 -37 -6 -127
-18 -25 -3 -52 -8 -60 -10 -8 -2 -44 -7 -80 -10 -36 -4 -67 -8 -70 -10 -3 -2
-33 -7 -65 -10 -33 -4 -67 -9 -77 -10 -9 -2 -38 -6 -65 -10 -26 -4 -59 -8 -73
-10 -14 -2 -61 -9 -105 -15 -44 -6 -91 -12 -105 -15 -23 -4 -132 -19 -225 -30
-21 -3 -50 -7 -64 -10 -14 -2 -48 -7 -76 -11 -27 -3 -57 -8 -66 -9 -9 -2 -38
-6 -65 -9 -27 -4 -65 -9 -84 -11 -19 -3 -55 -8 -80 -11 -85 -11 -163 -64 -203
-139 -30 -56 -30 -173 0 -230 38 -71 56 -83 408 -270 160 -85 239 -127 300
-160 33 -18 209 -112 390 -210 182 -97 334 -180 339 -185 7 -7 -19 -42 -75
-99 -8 -9 -69 -77 -135 -151 -161 -182 -175 -198 -204 -229 -14 -15 -54 -60
-90 -101 -36 -40 -74 -84 -85 -96 -30 -33 -71 -79 -155 -174 -41 -47 -77 -87
-80 -90 -3 -3 -41 -45 -85 -95 -44 -49 -88 -99 -98 -110 -31 -34 -56 -90 -63
-143 -13 -97 47 -206 140 -255 78 -40 76 -40 931 149 138 31 264 58 280 60 17
3 44 9 60 14 17 5 55 14 85 19 85 17 89 18 187 40 51 12 95 21 97 21 2 0 2
-39 1 -87 -2 -49 -6 -169 -10 -268 -3 -99 -8 -232 -10 -295 -3 -63 -7 -178
-10 -255 -3 -77 -7 -203 -10 -280 -15 -394 -15 -388 1 -441 30 -96 112 -160
220 -170 46 -4 69 -1 105 14 70 30 74 34 304 337 126 166 460 600 583 760 30
39 75 98 101 132 25 35 48 62 51 62 3 0 21 -21 41 -47 171 -226 235 -309 244
-318 5 -7 18 -22 27 -35 15 -20 60 -81 228 -299 14 -18 63 -83 110 -144 47
-61 130 -169 184 -241 119 -157 152 -189 216 -210 119 -39 250 17 305 131 21
43 24 131 12 444 -21 541 -26 664 -32 860 -3 91 -8 204 -10 252 -2 48 -1 89 4
92 4 3 47 -4 97 -15 49 -11 98 -21 109 -23 20 -4 342 -75 465 -102 89 -20 251
-55 275 -60 36 -7 67 -13 225 -48 373 -83 394 -85 468 -47 80 41 142 146 142
240 0 53 -40 127 -110 206 -35 39 -92 102 -127 141 -35 40 -73 83 -84 95 -11
13 -33 38 -48 54 -15 17 -51 57 -80 90 -30 33 -68 76 -85 95 -66 72 -133 148
-196 220 -36 40 -86 96 -111 124 -25 28 -90 100 -143 160 l-97 110 23 18 c13
10 26 18 30 18 4 0 52 24 105 54 54 29 139 75 188 101 50 26 118 63 153 81
129 70 194 105 472 254 157 84 310 166 340 182 69 37 95 61 128 118 23 38 27
56 26 120 0 85 -15 123 -72 182 -48 51 -86 62 -307 93 -58 8 -174 24 -215 30
-19 3 -113 16 -209 30 -95 13 -194 27 -220 30 -25 3 -55 8 -67 10 -11 3 -43 7
-70 10 -27 3 -60 8 -74 10 -110 16 -138 20 -320 45 -85 12 -156 23 -157 23 -1
2 451 1135 485 1217 6 14 25 61 42 105 17 44 36 89 41 99 18 31 23 129 9 172
-19 59 -69 120 -125 151 -41 22 -62 27 -115 27 -79 -1 -72 3 -390 -201 -135
-86 -328 -209 -430 -274 -102 -65 -247 -157 -323 -206 -188 -119 -272 -171
-274 -170 0 1 -65 202 -143 447 -369 1162 -334 1059 -379 1112 -53 62 -183 94
-264 64z m218 -2691 c36 -115 72 -224 78 -242 l13 -32 120 77 c66 42 128 82
137 87 9 6 83 52 164 104 81 52 158 101 169 108 21 13 -15 -82 -213 -570 -20
-48 -34 -90 -31 -93 6 -6 26 -9 134 -24 44 -6 89 -12 100 -14 10 -2 48 -7 84
-12 36 -4 67 -8 70 -9 3 -1 32 -5 65 -9 32 -4 68 -10 80 -12 11 -2 40 -6 65
-9 54 -7 103 -15 107 -18 1 -2 -30 -20 -70 -40 -40 -21 -103 -54 -142 -75 -38
-21 -122 -65 -185 -99 -63 -34 -143 -77 -177 -95 l-61 -33 70 -80 c39 -44 103
-115 142 -159 39 -43 76 -84 81 -90 65 -74 163 -184 173 -195 20 -20 12 -21
-53 -6 -33 7 -136 30 -230 50 -93 20 -177 38 -185 40 -55 13 -206 45 -213 45
-5 0 -6 -64 -3 -142 3 -79 8 -222 12 -318 3 -96 7 -197 8 -224 3 -39 1 -46 -8
-35 -152 202 -431 559 -436 559 -4 0 -103 -126 -221 -280 -118 -154 -217 -280
-220 -280 -4 0 -5 19 -4 43 2 23 6 119 9 212 4 94 9 237 12 318 l5 149 -33 -7
c-109 -23 -543 -117 -597 -130 -35 -8 -66 -13 -68 -11 -3 2 15 26 40 53 24 26
102 113 173 193 70 80 131 147 134 150 3 3 33 37 67 75 l62 71 -122 64 c-259
138 -295 157 -382 205 -49 27 -101 55 -115 62 -15 8 -19 13 -10 14 8 0 24 2
35 4 11 2 43 7 70 10 28 3 62 8 77 11 15 3 39 7 55 9 205 26 282 37 302 40 13
2 45 7 70 11 68 10 83 13 89 18 2 3 -55 153 -127 333 -72 180 -131 331 -131
335 0 4 33 -14 73 -41 39 -26 99 -64 132 -85 33 -20 137 -86 230 -146 143 -91
171 -106 177 -92 6 14 63 194 173 543 13 41 29 89 35 105 13 33 -1 70 145
-391z"/>
</g>
</svg>
